<svg width="46" height="46" viewBox="0 0 46 46" fill="none" xmlns="http://www.w3.org/2000/svg">
<g filter="url(#filter0_d)">
<path fill-rule="evenodd" clip-rule="evenodd" d="M23 38C33.4934 38 42 29.4934 42 19C42 8.50659 33.4934 0 23 0C12.5066 0 4 8.50659 4 19C4 29.4934 12.5066 38 23 38Z" fill="black"/>
<path d="M18.8072 21.3303C19.491 21.3303 20.2108 21.6239 21.0026 22.2477C21.9743 23.0183 22.6221 23.3853 22.982 23.3853C23.5219 23.3853 23.7738 23.0917 23.7738 22.5413C23.7738 22.2477 23.6298 21.9908 23.3059 21.7706C23.126 21.6606 22.2262 21.2936 20.5347 20.7064C17.7995 19.7156 16.4319 17.9174 16.4319 15.2385C16.4319 13.2202 17.1517 11.6422 18.5913 10.5046C19.8869 9.51376 21.4344 9 23.3059 9C24.9254 9 26.329 9.40367 27.5167 10.1743C28.7044 10.945 29.3162 11.9725 29.3162 13.2202C29.3162 13.9541 29.1003 14.578 28.6324 15.0917C28.1645 15.6055 27.5887 15.8257 26.8689 15.8257C26.1131 15.8257 25.2853 15.4587 24.3496 14.7248C23.7738 14.2844 23.3419 14.0275 23.054 14.0275C22.5501 14.0275 22.2982 14.2844 22.2982 14.7615C22.2982 15.2385 22.91 15.6789 24.1697 16.0459C25.8972 16.5963 27.1928 17.2569 28.1285 18.0642C29.3882 19.1284 30 20.5963 30 22.5046C30 24.5963 29.3162 26.211 27.9126 27.3853C26.617 28.4862 24.9254 29 22.838 29C20.7506 29 19.0231 28.4495 17.6555 27.3119C16.5758 26.3945 16 25.367 16 24.156C16 23.3486 16.2519 22.6881 16.7918 22.1376C17.3676 21.6239 18.0154 21.3303 18.8072 21.3303Z" fill="white"/>
</g>
<defs>
<filter id="filter0_d" x="0" y="0" width="46" height="46" filterUnits="userSpaceOnUse" color-interpolation-filters="sRGB">
<feFlood flood-opacity="0" result="BackgroundImageFix"/>
<feColorMatrix in="SourceAlpha" type="matrix" values="0 0 0 0 0 0 0 0 0 0 0 0 0 0 0 0 0 0 127 0" result="hardAlpha"/>
<feOffset dy="4"/>
<feGaussianBlur stdDeviation="2"/>
<feComposite in2="hardAlpha" operator="out"/>
<feColorMatrix type="matrix" values="0 0 0 0 0 0 0 0 0 0 0 0 0 0 0 0 0 0 0.25 0"/>
<feBlend mode="normal" in2="BackgroundImageFix" result="effect1_dropShadow"/>
<feBlend mode="normal" in="SourceGraphic" in2="effect1_dropShadow" result="shape"/>
</filter>
</defs>
</svg>
