<svg width="44" height="44" viewBox="0 0 44 44" fill="none" xmlns="http://www.w3.org/2000/svg">
<rect width="44" height="44" rx="8" fill="black"/>
<path fill-rule="evenodd" clip-rule="evenodd" d="M24.1113 23.5966C22.393 25.3149 19.607 25.3149 17.8887 23.5966C16.1704 21.8782 16.1704 19.0923 17.8887 17.374C19.607 15.6557 22.393 15.6557 24.1113 17.374C25.8296 19.0923 25.8296 21.8782 24.1113 23.5966ZM24.6397 25.2561C22.2875 27.0554 18.9088 26.8793 16.7574 24.7279C14.4142 22.3848 14.4142 18.5858 16.7574 16.2426C19.1005 13.8995 22.8995 13.8995 25.2426 16.2426C27.3939 18.3939 27.5701 21.7724 25.7711 24.1247L30.0511 28.4047L28.9197 29.5361L24.6397 25.2561Z" fill="white"/>
</svg>
